<?xml version="1.0" encoding="UTF-8" standalone="no"?>
<!DOCTYPE svg PUBLIC "-//W3C//DTD SVG 1.1//EN"
 "http://www.w3.org/Graphics/SVG/1.1/DTD/svg11.dtd">
<!-- Generated by graphviz version 2.30.1 (20130712.1527)
 -->
<!-- Title: LDAP Pages: 1 -->
<svg width="558pt" height="294pt"
 viewBox="0.00 0.00 558.00 294.00" xmlns="http://www.w3.org/2000/svg" xmlns:xlink="http://www.w3.org/1999/xlink">
<g id="graph0" class="graph" transform="scale(1 1) rotate(0) translate(4 290)">
<title>LDAP</title>
<polygon fill="white" stroke="white" points="-4,5 -4,-290 555,-290 555,5 -4,5"/>
<g id="clust1" class="cluster"><title>cluster_client</title>
<polygon fill="none" stroke="black" points="8,-113 8,-244 188,-244 188,-113 8,-113"/>
<text text-anchor="middle" x="98" y="-228.8" font-family="Times,serif" font-size="14.00">Клиент</text>
<text text-anchor="middle" x="98" y="-213.8" font-family="Times,serif" font-size="14.00"> IP:192.168.100.2</text>
</g>
<g id="clust2" class="cluster"><title>cluster_accounts</title>
<polygon fill="none" stroke="black" points="16,-121 16,-198 180,-198 180,-121 16,-121"/>
<text text-anchor="middle" x="98" y="-182.8" font-family="Times,serif" font-size="14.00">Аккаунты пользователей</text>
</g>
<g id="clust3" class="cluster"><title>cluster_ldap_server</title>
<polygon fill="none" stroke="black" points="371,-147 371,-278 511,-278 511,-147 371,-147"/>
<text text-anchor="middle" x="441" y="-262.8" font-family="Times,serif" font-size="14.00">LDAP&#45;сервер</text>
<text text-anchor="middle" x="441" y="-247.8" font-family="Times,serif" font-size="14.00"> IP:192.168.100.3</text>
</g>
<g id="clust4" class="cluster"><title>cluster_ldap_accounts</title>
<polygon fill="none" stroke="black" points="379,-155 379,-232 503,-232 503,-155 379,-155"/>
<text text-anchor="middle" x="441" y="-216.8" font-family="Times,serif" font-size="14.00">Записи LDAP</text>
</g>
<g id="clust5" class="cluster"><title>cluster_psql_server</title>
<polygon fill="none" stroke="black" points="340,-8 340,-139 542,-139 542,-8 340,-8"/>
<text text-anchor="middle" x="441" y="-123.8" font-family="Times,serif" font-size="14.00">PostgreSQL</text>
<text text-anchor="middle" x="441" y="-108.8" font-family="Times,serif" font-size="14.00"> IP:192.168.100.4</text>
</g>
<g id="clust6" class="cluster"><title>cluster_postgresql_accounts</title>
<polygon fill="none" stroke="black" points="348,-16 348,-93 534,-93 534,-16 348,-16"/>
<text text-anchor="middle" x="441" y="-77.8" font-family="Times,serif" font-size="14.00">Аккаунты пользователей БД</text>
</g>
<!-- accounts -->
<g id="node1" class="node"><title>accounts</title>
<polygon fill="lightgrey" stroke="black" points="44,-130 44,-166 152,-166 152,-130 44,-130"/>
<text text-anchor="middle" x="62" y="-145.8" font-family="Times,serif" font-size="9.00">user1</text>
<polyline fill="none" stroke="black" points="80,-130 80,-166 "/>
<text text-anchor="middle" x="98" y="-145.8" font-family="Times,serif" font-size="9.00">user2</text>
<polyline fill="none" stroke="black" points="116,-130 116,-166 "/>
<text text-anchor="middle" x="134" y="-145.8" font-family="Times,serif" font-size="9.00">user3</text>
</g>
<!-- ldap_accounts -->
<g id="node2" class="node"><title>ldap_accounts</title>
<polygon fill="lightgrey" stroke="black" points="387,-164 387,-200 495,-200 495,-164 387,-164"/>
<text text-anchor="middle" x="405" y="-179.8" font-family="Times,serif" font-size="9.00">user1</text>
<polyline fill="none" stroke="black" points="423,-164 423,-200 "/>
<text text-anchor="middle" x="441" y="-179.8" font-family="Times,serif" font-size="9.00">user2</text>
<polyline fill="none" stroke="black" points="459,-164 459,-200 "/>
<text text-anchor="middle" x="477" y="-179.8" font-family="Times,serif" font-size="9.00">user3</text>
</g>
<!-- accounts&#45;&gt;ldap_accounts -->
<g id="edge1" class="edge"><title>accounts&#45;&gt;ldap_accounts</title>
<path fill="none" stroke="darkgreen" d="M152.13,-155.579C163.927,-157.146 176.378,-158.71 188,-160 252.111,-167.117 325.611,-173.309 376.621,-177.295"/>
<polygon fill="darkgreen" stroke="darkgreen" points="376.592,-180.803 386.833,-178.087 377.134,-173.824 376.592,-180.803"/>
<text text-anchor="middle" x="264" y="-176" font-family="Times,serif" font-size="10.00" fill="blue">Аутентификация на сервере LDAP</text>
</g>
<!-- psql_accounts -->
<g id="node3" class="node"><title>psql_accounts</title>
<polygon fill="lightgrey" stroke="black" points="387,-25 387,-61 495,-61 495,-25 387,-25"/>
<text text-anchor="middle" x="405" y="-40.8" font-family="Times,serif" font-size="9.00">user1</text>
<polyline fill="none" stroke="black" points="423,-25 423,-61 "/>
<text text-anchor="middle" x="441" y="-40.8" font-family="Times,serif" font-size="9.00">user2</text>
<polyline fill="none" stroke="black" points="459,-25 459,-61 "/>
<text text-anchor="middle" x="477" y="-40.8" font-family="Times,serif" font-size="9.00">user3</text>
</g>
<!-- accounts&#45;&gt;psql_accounts -->
<g id="edge3" class="edge"><title>accounts&#45;&gt;psql_accounts</title>
<path fill="none" stroke="darkgreen" d="M152.281,-131.594C213.126,-112.858 312.573,-82.2369 377.153,-62.3519"/>
<polygon fill="darkgreen" stroke="darkgreen" points="378.285,-65.6653 386.812,-59.3774 376.225,-58.9753 378.285,-65.6653"/>
<text text-anchor="middle" x="264" y="-119" font-family="Times,serif" font-size="10.00" fill="blue">Авторизация в PostgreSQL</text>
</g>
<!-- ldap_accounts&#45;&gt;accounts -->
<g id="edge2" class="edge"><title>ldap_accounts&#45;&gt;accounts</title>
<path fill="none" stroke="darkgreen" d="M398.501,-163.955C380.829,-157.203 359.766,-150.359 340,-147 280.309,-136.856 211.096,-138.499 162.198,-141.846"/>
<polygon fill="darkgreen" stroke="darkgreen" points="161.802,-138.365 152.083,-142.582 162.31,-145.347 161.802,-138.365"/>
<text text-anchor="middle" x="264" y="-150" font-family="Times,serif" font-size="10.00" fill="blue">Успех/Провал аутентификации</text>
</g>
</g>
</svg>
